# File created by Blade
# Date/Time:  Thu Sep 25 18:48:06 2014
# Frame Rate: 120.000 fps
#------------------------------------------------------
:FULLY-SPECIFIED
:DEGREES
1952
root 0.934402 32.889042 3.392041 6.663024 -8.244106 -0.276486
Spine -18.126134 -2.106459 -0.597875
Head 12.366440 6.253448 5.749703
LeftShoulder 4.212252 30.126180 4.502398
LeftArm 140.236476 65.653484 46.793713
LeftForeArm 29.075955 0.000000 122.306673
LeftHand 0.409618 -0.000000 -16.113581
LeftHandThumb1 -26.253704 0.000000 33.147579
RightShoulder -25.279428 26.674486 -46.189939
RightArm 114.762555 37.785207 89.250734
RightForeArm 25.953602 -0.000000 152.983998
RightHand 9.282772 -0.000000 5.079330
RightHandThumb1 -24.326973 -0.000000 -32.862282
LeftUpLeg 5.035920 15.978838 4.117088
LeftLeg -2.969093 -0.000000 0.000000
LeftFoot -9.370512 3.624495 -16.857320
LeftToeBase 11.020832 -0.000000 -0.000000
RightUpLeg 1.305289 -4.512670 -6.475089
RightLeg -1.064623 -0.000000 0.000000
RightFoot -5.734188 -1.005219 5.245208
RightToeBase 0.293001 -0.000000 -0.000000
1953
root 0.936001 32.893818 3.368122 6.687873 -8.292153 -0.260329
Spine -17.950051 -2.142324 -0.627814
Head 12.375276 6.125880 6.050201
LeftShoulder 4.211045 30.148077 4.575913
LeftArm 140.332651 65.656371 46.835324
LeftForeArm 29.236121 -0.000000 122.236873
LeftHand 0.386613 -0.000000 -16.133724
LeftHandThumb1 -26.253704 0.000000 33.147579
RightShoulder -25.291413 26.698180 -46.239939
RightArm 114.866585 37.741042 89.498611
RightForeArm 25.782684 -0.000000 153.048810
RightHand 9.453313 -0.000000 5.774321
RightHandThumb1 -24.326973 -0.000000 -32.862282
LeftUpLeg 4.959750 16.040676 4.084800
LeftLeg -2.957464 -0.000000 0.000000
LeftFoot -9.293241 3.605201 -16.854665
LeftToeBase 10.935718 -0.000000 -0.000000
RightUpLeg 1.211040 -4.470202 -6.481946
RightLeg -1.036402 -0.000000 0.000000
RightFoot -5.702016 -1.041819 5.230724
RightToeBase 0.253035 -0.000000 -0.000000
1954
root 0.936505 32.897934 3.343457 6.713933 -8.328887 -0.242716
Spine -17.786547 -2.169456 -0.674074
Head 12.366576 5.965575 6.341614
LeftShoulder 4.266908 30.154963 4.691736
LeftArm 140.535698 65.684147 46.962088
LeftForeArm 29.430620 -0.000000 122.163289
LeftHand 0.388536 -0.000000 -16.079241
LeftHandThumb1 -26.253704 0.000000 33.147579
RightShoulder -25.277483 26.706420 -46.241577
RightArm 114.942712 37.679513 89.650876
RightForeArm 25.522107 -0.000000 153.095864
RightHand 9.291744 -0.000000 5.107704
RightHandThumb1 -24.326973 -0.000000 -32.862282
LeftUpLeg 4.874917 16.073444 4.050165
LeftLeg -2.926392 -0.000000 0.000000
LeftFoot -9.300027 3.618676 -16.768200
LeftToeBase 11.133745 -0.000000 -0.000000
RightUpLeg 1.105527 -4.444196 -6.489641
RightLeg -0.977919 -0.000000 0.000000
RightFoot -5.698515 -1.109903 5.179081
RightToeBase 0.234374 -0.000000 -0.000000
1955
root 0.939039 32.902407 3.316802 6.752907 -8.355075 -0.221404
Spine -17.629932 -2.195961 -0.730729
Head 12.361327 5.777653 6.654050
LeftShoulder 4.312509 30.199665 4.801412
LeftArm 140.670704 65.650625 47.027153
LeftForeArm 29.608362 -0.000000 122.083931
LeftHand 0.511708 0.000000 -16.017711
LeftHandThumb1 -26.253704 0.000000 33.147579
RightShoulder -25.266317 26.725548 -46.230104
RightArm 115.006526 37.630931 89.771330
RightForeArm 25.398930 -0.000000 153.118347
RightHand 9.182017 -0.000000 4.880821
RightHandThumb1 -24.326973 -0.000000 -32.862282
LeftUpLeg 4.766158 16.078735 3.994145
LeftLeg -2.882644 -0.000000 0.000000
LeftFoot -9.286652 3.690895 -16.800549
LeftToeBase 11.057280 -0.000000 -0.000000
RightUpLeg 0.985487 -4.454883 -6.495842
RightLeg -0.934671 -0.000000 0.000000
RightFoot -5.676106 -1.079564 5.161175
RightToeBase 0.282293 -0.000000 -0.000000
1956
root 0.944490 32.906092 3.286845 6.779367 -8.338246 -0.195228
Spine -17.443421 -2.243118 -0.773008
Head 12.370140 5.639335 6.972693
LeftShoulder 4.379162 30.219466 4.884235
LeftArm 140.761905 65.599202 47.070071
LeftForeArm 29.774632 0.000000 122.032420
LeftHand 0.488308 -0.000000 -15.881899
LeftHandThumb1 -26.253704 0.000000 33.147579
RightShoulder -25.252119 26.627836 -46.174560
RightArm 115.153764 37.565053 89.873166
RightForeArm 25.331107 -0.000000 153.135479
RightHand 9.123516 -0.000000 4.858422
RightHandThumb1 -24.326973 -0.000000 -32.862282
LeftUpLeg 4.651235 16.050006 3.937312
LeftLeg -2.841429 -0.000000 0.000000
LeftFoot -9.275830 3.736711 -16.729787
LeftToeBase 11.150269 -0.000000 -0.000000
RightUpLeg 0.877364 -4.521115 -6.514182
RightLeg -0.874253 -0.000000 0.000000
RightFoot -5.665951 -1.091900 5.112342
RightToeBase 0.268815 -0.000000 -0.000000
1957
root 0.945973 32.909312 3.258648 6.820435 -8.377854 -0.187139
Spine -17.293570 -2.233641 -0.815631
Head 12.377933 5.481363 7.271721
LeftShoulder 4.438729 30.239911 4.978517
LeftArm 140.905734 65.592153 47.151853
LeftForeArm 29.949184 0.000000 121.973800
LeftHand 0.493657 -0.000000 -15.843571
LeftHandThumb1 -26.253704 0.000000 33.147579
RightShoulder -25.156876 26.453073 -46.043774
RightArm 115.393408 37.539268 89.964215
RightForeArm 25.293850 -0.000000 153.136724
RightHand 9.157499 0.000000 4.967273
RightHandThumb1 -24.326973 -0.000000 -32.862282
LeftUpLeg 4.545294 16.116801 3.903723
LeftLeg -2.810415 -0.000000 0.000000
LeftFoot -9.256748 3.738273 -16.710716
LeftToeBase 11.084855 -0.000000 -0.000000
RightUpLeg 0.743830 -4.494991 -6.511160
RightLeg -0.806209 -0.000000 0.000000
RightFoot -5.666492 -1.110959 5.060637
RightToeBase 0.269440 -0.000000 -0.000000
1958
root 0.945870 32.911408 3.231023 6.872700 -8.395843 -0.172594
Spine -17.167423 -2.256892 -0.887984
Head 12.399505 5.345270 7.711708
LeftShoulder 4.471227 30.220865 5.095792
LeftArm 141.095824 65.624475 47.251616
LeftForeArm 30.083306 -0.000000 121.900085
LeftHand 0.532164 -0.000000 -15.804013
LeftHandThumb1 -26.253704 0.000000 33.147579
RightShoulder -25.115559 26.478051 -46.007754
RightArm 115.342247 37.534963 89.924629
RightForeArm 25.164488 -0.000000 153.149205
RightHand 9.035237 -0.000000 4.549243
RightHandThumb1 -24.326973 -0.000000 -32.862282
LeftUpLeg 4.426613 16.167123 3.866703
LeftLeg -2.781637 -0.000000 0.000000
LeftFoot -9.237376 3.721550 -16.670024
LeftToeBase 11.154462 -0.000000 -0.000000
RightUpLeg 0.614368 -4.500939 -6.509780
RightLeg -0.759391 -0.000000 0.000000
RightFoot -5.666365 -1.113247 5.049706
RightToeBase 0.253502 -0.000000 -0.000000
1959
root 0.944106 32.913764 3.203558 6.914458 -8.419158 -0.178182
Spine -17.014762 -2.270526 -0.922869
Head 12.396517 5.228240 8.084131
LeftShoulder 4.454894 30.225320 5.161095
LeftArm 141.212379 65.593555 47.327116
LeftForeArm 30.200359 0.000000 121.854591
LeftHand 0.571399 -0.000000 -15.764374
LeftHandThumb1 -26.253704 0.000000 33.147579
RightShoulder -25.100627 26.537277 -46.025549
RightArm 115.225976 37.510517 89.826452
RightForeArm 25.030617 0.000000 153.172303
RightHand 8.880018 0.000000 4.041924
RightHandThumb1 -24.326973 -0.000000 -32.862282
LeftUpLeg 4.307583 16.321942 3.857080
LeftLeg -2.710429 -0.000000 0.000000
LeftFoot -9.217157 3.596210 -16.634940
LeftToeBase 11.140181 -0.000000 -0.000000
RightUpLeg 0.492118 -4.500912 -6.487485
RightLeg -0.702093 -0.000000 0.000000
RightFoot -5.668912 -1.098650 5.019669
RightToeBase 0.300768 -0.000000 -0.000000
1960
root 0.948089 32.915562 3.175235 6.973301 -8.441076 -0.163922
Spine -16.879476 -2.261824 -0.965748
Head 12.392580 5.112413 8.444598
LeftShoulder 4.440931 30.215716 5.207703
LeftArm 141.410185 65.557941 47.473800
LeftForeArm 30.327826 -0.000000 121.813522
LeftHand 0.671253 0.000000 -15.714235
LeftHandThumb1 -26.253704 0.000000 33.147579
RightShoulder -25.083398 26.500415 -46.036338
RightArm 115.223305 37.505408 89.860856
RightForeArm 25.117879 0.000000 153.200613
RightHand 8.996226 0.000000 4.498017
RightHandThumb1 -24.326973 -0.000000 -32.862282
LeftUpLeg 4.221377 16.251964 3.815466
LeftLeg -2.769404 -0.000000 0.000000
LeftFoot -9.171382 3.664862 -16.732493
LeftToeBase 11.124092 -0.000000 -0.000000
RightUpLeg 0.346759 -4.512336 -6.497040
RightLeg -0.641253 -0.000000 0.000000
RightFoot -5.667804 -1.069127 5.014919
RightToeBase 0.274788 -0.000000 -0.000000
1961
root 0.950351 32.918531 3.146817 7.023304 -8.403364 -0.147875
Spine -16.735291 -2.334891 -1.001667
Head 12.404483 5.071421 8.854675
LeftShoulder 4.391454 30.202514 5.225192
LeftArm 141.587855 65.534529 47.627305
LeftForeArm 30.453916 -0.000000 121.777060
LeftHand 0.562590 -0.000000 -15.670215
LeftHandThumb1 -26.253704 0.000000 33.147579
RightShoulder -25.029490 26.545377 -45.994476
RightArm 115.233075 37.495457 89.823901
RightForeArm 25.085907 0.000000 153.206867
RightHand 8.977390 -0.000000 4.578001
RightHandThumb1 -24.326973 -0.000000 -32.862282
LeftUpLeg 4.096362 16.237531 3.771231
LeftLeg -2.750535 -0.000000 0.000000
LeftFoot -9.140563 3.684024 -16.672344
LeftToeBase 11.116453 -0.000000 -0.000000
RightUpLeg 0.235211 -4.559782 -6.499273
RightLeg -0.609592 -0.000000 0.000000
RightFoot -5.650515 -1.061845 5.001804
RightToeBase 0.297174 -0.000000 -0.000000
1962
root 0.951491 32.920794 3.119654 7.072484 -8.421355 -0.142122
Spine -16.600945 -2.298981 -1.048510
Head 12.422939 4.935342 9.203375
LeftShoulder 4.383317 30.214238 5.271059
LeftArm 141.650194 65.472781 47.680608
LeftForeArm 30.533145 -0.000000 121.760884
LeftHand 0.540238 -0.000000 -15.711997
LeftHandThumb1 -26.253704 0.000000 33.147579
RightShoulder -25.025290 26.548945 -45.980068
RightArm 115.229455 37.473816 89.777009
RightForeArm 24.948080 0.000000 153.222379
RightHand 8.803767 -0.000000 4.164314
RightHandThumb1 -24.326973 -0.000000 -32.862282
LeftUpLeg 3.998888 16.271549 3.738872
LeftLeg -2.754068 -0.000000 0.000000
LeftFoot -9.115899 3.687795 -16.679040
LeftToeBase 11.171898 -0.000000 -0.000000
RightUpLeg 0.125575 -4.510330 -6.496285
RightLeg -0.592201 -0.000000 0.000000
RightFoot -5.627435 -1.089832 5.022985
RightToeBase 0.283809 -0.000000 -0.000000
1963
root 0.950713 32.923125 3.091856 7.128733 -8.435442 -0.153211
Spine -16.475499 -2.269350 -1.076472
Head 12.430074 4.843108 9.527242
LeftShoulder 4.383656 30.190914 5.319576
LeftArm 141.787384 65.468786 47.779332
LeftForeArm 30.621671 0.000000 121.733656
LeftHand 0.630560 -0.000000 -15.746868
LeftHandThumb1 -26.253704 0.000000 33.147579
RightShoulder -25.070201 26.602264 -46.049665
RightArm 115.134699 37.384263 89.793994
RightForeArm 24.887454 -0.000000 153.271606
RightHand 8.852488 -0.000000 4.439507
RightHandThumb1 -24.326973 -0.000000 -32.862282
LeftUpLeg 3.907229 16.279567 3.725759
LeftLeg -2.782463 -0.000000 0.000000
LeftFoot -9.093923 3.722622 -16.609397
LeftToeBase 11.151470 -0.000000 -0.000000
RightUpLeg 0.012217 -4.468879 -6.469764
RightLeg -0.581492 -0.000000 0.000000
RightFoot -5.581406 -1.151256 4.964350
RightToeBase 0.220409 -0.000000 -0.000000
